C:\Users\Nicos\Documents\OpenSimProjects\SprintingProject\Study1\PredictiveResults\IC_pred_Sprinting_optimum_26-October-2023__10-52-28_p02_maxVel_01___Nominal_GRF.mot
version=1
nRows=4
nColumns=127
inDegrees=yes
endheader
time	ground_force_vx	ground_force_vy	ground_force_vz	ground_force_px	ground_force_py	ground_force_pz	ground_torque_x	ground_torque_y	ground_torque_z	1_ground_force_vx	1_ground_force_vy	1_ground_force_vz	1_ground_force_px	1_ground_force_py	1_ground_force_pz	1_ground_torque_x	1_ground_torque_y	1_ground_torque_z	2_ground_force_vx	2_ground_force_vy	2_ground_force_vz	2_ground_force_px	2_ground_force_py	2_ground_force_pz	2_ground_torque_x	2_ground_torque_y	2_ground_torque_z	3_ground_force_vx	3_ground_force_vy	3_ground_force_vz	3_ground_force_px	3_ground_force_py	3_ground_force_pz	3_ground_torque_x	3_ground_torque_y	3_ground_torque_z	4_ground_force_vx	4_ground_force_vy	4_ground_force_vz	4_ground_force_px	4_ground_force_py	4_ground_force_pz	4_ground_torque_x	4_ground_torque_y	4_ground_torque_z	5_ground_force_vx	5_ground_force_vy	5_ground_force_vz	5_ground_force_px	5_ground_force_py	5_ground_force_pz	5_ground_torque_x	5_ground_torque_y	5_ground_torque_z	6_ground_force_vx	6_ground_force_vy	6_ground_force_vz	6_ground_force_px	6_ground_force_py	6_ground_force_pz	6_ground_torque_x	6_ground_torque_y	6_ground_torque_z	7_ground_force_vx	7_ground_force_vy	7_ground_force_vz	7_ground_force_px	7_ground_force_py	7_ground_force_pz	7_ground_torque_x	7_ground_torque_y	7_ground_torque_z	8_ground_force_vx	8_ground_force_vy	8_ground_force_vz	8_ground_force_px	8_ground_force_py	8_ground_force_pz	8_ground_torque_x	8_ground_torque_y	8_ground_torque_z	9_ground_force_vx	9_ground_force_vy	9_ground_force_vz	9_ground_force_px	9_ground_force_py	9_ground_force_pz	9_ground_torque_x	9_ground_torque_y	9_ground_torque_z	10_ground_force_vx	10_ground_force_vy	10_ground_force_vz	10_ground_force_px	10_ground_force_py	10_ground_force_pz	10_ground_torque_x	10_ground_torque_y	10_ground_torque_z	11_ground_force_vx	11_ground_force_vy	11_ground_force_vz	11_ground_force_px	11_ground_force_py	11_ground_force_pz	11_ground_torque_x	11_ground_torque_y	11_ground_torque_z	12_ground_force_vx	12_ground_force_vy	12_ground_force_vz	12_ground_force_px	12_ground_force_py	12_ground_force_pz	12_ground_torque_x	12_ground_torque_y	12_ground_torque_z	13_ground_force_vx	13_ground_force_vy	13_ground_force_vz	13_ground_force_px	13_ground_force_py	13_ground_force_pz	13_ground_torque_x	13_ground_torque_y	13_ground_torque_z
0.056000	-80.757661	39.291445	17.830892	0.361139	-0.001849	0.422382	0.000000	0.000000	0.000000	-1.139792	0.568997	0.279986	0.318623	0.004511	0.444694	0.000000	0.000000	0.000000	-0.023731	0.012462	0.007608	0.291242	0.008453	0.439057	0.000000	0.000000	0.000000	-0.246053	0.126247	0.077720	0.293522	0.006113	0.416935	0.000000	0.000000	0.000000	-0.000000	0.000000	0.000000	0.208686	0.019966	0.471908	0.000000	0.000000	0.000000	-0.001605	0.000843	0.000554	0.261976	0.011033	0.434950	0.000000	0.000000	0.000000	-0.000000	0.000000	0.000000	0.144911	0.021351	0.418521	0.000000	0.000000	0.000000	-0.000000	0.000000	0.000000	-0.515225	0.236525	0.134621	0.000000	0.000000	0.000000	-0.000000	0.000000	0.000000	-0.494734	0.257912	0.119863	0.000000	0.000000	0.000000	-0.000000	0.000000	0.000000	-0.483523	0.269680	0.128608	0.000000	0.000000	0.000000	-0.000000	0.000000	0.000000	-0.491113	0.267514	0.149587	0.000000	0.000000	0.000000	-0.000000	0.000000	0.000000	-0.448770	0.311072	0.109529	0.000000	0.000000	0.000000	-0.000000	0.000000	0.000000	-0.476126	0.283594	0.137031	0.000000	0.000000	0.000000	-0.000000	0.000000	0.000000	-0.446539	0.339248	0.170722	0.000000	0.000000	0.000000
0.056646	-108.885929	53.410781	21.896598	0.364772	-0.002433	0.421690	0.000000	0.000000	0.000000	-2.313332	1.165211	0.529147	0.322095	0.003680	0.443970	0.000000	0.000000	0.000000	-0.060155	0.031763	0.018102	0.294578	0.007529	0.438231	0.000000	0.000000	0.000000	-0.530073	0.273353	0.156802	0.296965	0.005297	0.416075	0.000000	0.000000	0.000000	-0.000000	0.000000	0.000000	0.211784	0.018680	0.470979	0.000000	0.000000	0.000000	-0.004485	0.002369	0.001465	0.265302	0.010054	0.434060	0.000000	0.000000	0.000000	-0.000000	0.000000	0.000000	0.148197	0.020155	0.417377	0.000000	0.000000	0.000000	-0.000000	0.000000	0.000000	-0.503742	0.236392	0.133764	0.000000	0.000000	0.000000	-0.000000	0.000000	0.000000	-0.483391	0.257827	0.119089	0.000000	0.000000	0.000000	-0.000000	0.000000	0.000000	-0.472332	0.269636	0.127911	0.000000	0.000000	0.000000	-0.000000	0.000000	0.000000	-0.479973	0.267450	0.148863	0.000000	0.000000	0.000000	-0.000000	0.000000	0.000000	-0.437835	0.311099	0.108987	0.000000	0.000000	0.000000	-0.000000	0.000000	0.000000	-0.465069	0.283561	0.136372	0.000000	0.000000	0.000000	-0.000000	0.000000	0.000000	-0.436019	0.339263	0.170215	0.000000	0.000000	0.000000
0.058689	-201.411157	102.639964	23.605826	0.375941	-0.004118	0.420104	0.000000	0.000000	0.000000	-11.965158	6.275528	1.842539	0.332747	0.001233	0.442173	0.000000	0.000000	0.000000	-0.828043	0.453817	0.189290	0.304831	0.004761	0.436057	0.000000	0.000000	0.000000	-4.243433	2.265943	0.943431	0.307570	0.002832	0.413828	0.000000	0.000000	0.000000	-0.000027	0.000015	0.000009	0.221258	0.014773	0.468294	0.000000	0.000000	0.000000	-0.090668	0.049690	0.023564	0.275524	0.007083	0.431640	0.000000	0.000000	0.000000	-0.000005	0.000003	0.000002	0.158295	0.016374	0.413975	0.000000	0.000000	0.000000	-0.000000	0.000000	0.000000	-0.467476	0.235962	0.131109	0.000000	0.000000	0.000000	-0.000000	0.000000	0.000000	-0.447535	0.257537	0.116699	0.000000	0.000000	0.000000	-0.000000	0.000000	0.000000	-0.436896	0.269430	0.125700	0.000000	0.000000	0.000000	-0.000000	0.000000	0.000000	-0.444697	0.267181	0.146566	0.000000	0.000000	0.000000	-0.000000	0.000000	0.000000	-0.403235	0.311118	0.107252	0.000000	0.000000	0.000000	-0.000000	0.000000	0.000000	-0.430066	0.283393	0.134276	0.000000	0.000000	0.000000	-0.000000	0.000000	0.000000	-0.402746	0.339243	0.168577	0.000000	0.000000	0.000000
0.060169	-264.108485	139.892472	12.916792	0.383650	-0.005212	0.419541	0.000000	0.000000	0.000000	-27.620407	15.071892	2.512292	0.340082	-0.000394	0.441363	0.000000	0.000000	0.000000	-3.905598	2.239805	0.693606	0.311871	0.002866	0.434898	0.000000	0.000000	0.000000	-11.980698	6.679754	2.044519	0.314874	0.001115	0.412645	0.000000	0.000000	0.000000	-0.000468	0.000284	0.000139	0.227728	0.012083	0.466599	0.000000	0.000000	0.000000	-0.629741	0.360874	0.134752	0.282547	0.005022	0.430262	0.000000	0.000000	0.000000	-0.000092	0.000053	0.000033	0.165250	0.013647	0.411719	0.000000	0.000000	0.000000	-0.000000	0.000000	0.000000	-0.441214	0.235637	0.129230	0.000000	0.000000	0.000000	-0.000000	0.000000	0.000000	-0.421535	0.257305	0.115018	0.000000	0.000000	0.000000	-0.000000	0.000000	0.000000	-0.411146	0.269219	0.124091	0.000000	0.000000	0.000000	-0.000000	0.000000	0.000000	-0.419061	0.266923	0.144893	0.000000	0.000000	0.000000	-0.000000	0.000000	0.000000	-0.378114	0.311069	0.105975	0.000000	0.000000	0.000000	-0.000000	0.000000	0.000000	-0.404637	0.283208	0.132744	0.000000	0.000000	0.000000	-0.000000	0.000000	0.000000	-0.378600	0.339163	0.167356	0.000000	0.000000	0.000000
